<svg width="156" height="54" viewBox="0 0 156 54" fill="none" xmlns="http://www.w3.org/2000/svg">
<path fill-rule="evenodd" clip-rule="evenodd" d="M2 27C2 13.1943 13.1953 2 27 2C40.8086 2 52 13.1943 52 27C52 38.3525 44.4336 47.9385 34.0664 50.9873L34.1055 50.9434C35.6953 49.1104 36.4648 46.6982 36.4648 44.3232V42.2773C40.5156 39.5791 43 35.418 43 31.8066C43 31.8066 29.3008 35.4326 11 31.8066C11 35.3857 13.4844 39.5537 17.5352 42.2617V44.3232C17.5352 46.6982 18.3047 49.1104 19.8945 50.9434L19.918 50.9824C9.5625 47.9277 2 38.3457 2 27ZM32.5938 49.6328C31.3789 51.0342 29.543 52 27 52C24.457 52 22.6211 51.0342 21.4062 49.6328C20.1758 48.2129 19.5352 46.2861 19.5352 44.3232V35.4736L19.7656 35.5137C20.6836 35.6699 21.9961 35.8564 23.5938 35.9834C26.4961 36.2139 30.3516 36.249 34.4648 35.5264V44.3232C34.4648 46.2861 33.8242 48.2129 32.5938 49.6328ZM0 27C0 41.9111 12.0898 54 27 54C41.9102 54 54 41.9111 54 27C54 12.0898 41.9102 0 27 0C12.0898 0 0 12.0898 0 27ZM17.4023 18.3906L17.6914 18.5391C18.0273 18.7002 18.4219 18.8545 18.8281 19.0107C19.8906 19.4229 21.1172 19.9004 21.8555 20.7363C22.2617 21.1982 22.5234 21.7686 22.5234 22.498C22.5234 23.3799 22.2578 24.1475 21.7656 24.7549C21.2539 25.3906 20.4961 25.8516 19.5352 26.0869L19.543 26.8135C19.543 27.1338 19.4336 27.4287 19.25 27.6621C19 27.9795 18.6172 28.1826 18.1836 28.1826C17.8242 28.1826 17.4961 28.041 17.25 27.8096C16.9883 27.5596 16.8242 27.2061 16.8242 26.8135V26.1279C15.0469 25.7803 13.6992 24.792 13.6992 23.8018C13.6992 23.127 14.1875 22.5986 14.8086 22.5986C14.9531 22.5986 15.0898 22.6279 15.2227 22.6768C15.4844 22.7725 15.7266 22.9424 15.9766 23.1182L15.982 23.122C16.5314 23.5068 17.152 23.9414 18.2344 23.9414C19.3125 23.9414 19.9766 23.3633 19.9766 22.8291C19.9766 22.0991 18.8637 21.6317 17.6826 21.1357L17.6758 21.1328L17.6486 21.1214C16.9221 20.8161 16.1522 20.4927 15.5195 20.0615C14.7266 19.5176 14.1523 18.8037 14.1523 17.7432C14.1523 17.3877 14.207 17.0488 14.3086 16.7324C14.4023 16.4404 14.5391 16.168 14.7148 15.917C15.1719 15.2559 15.8984 14.752 16.8242 14.4805V13.8584C16.8242 13.5283 16.9414 13.2246 17.1328 12.9883C17.3828 12.6826 17.7617 12.4883 18.1836 12.4883C18.9336 12.4883 19.543 13.1025 19.543 13.8584V14.4326C20.9297 14.751 22.2344 15.5098 22.2344 16.584C22.2344 17.1221 21.8633 17.7021 21.0469 17.7021C20.832 17.7021 20.6484 17.6455 20.4805 17.5605C20.3047 17.4707 20.1445 17.3496 19.9883 17.2305L19.9855 17.2284C19.5878 16.9271 19.1385 16.5869 18.2344 16.5869C18.1172 16.5869 17.7891 16.5967 17.4648 16.6982C17.0781 16.8203 16.6992 17.0742 16.6992 17.5986C16.6992 17.9014 16.9805 18.1562 17.4023 18.3906ZM36.0087 19.038C37.6524 19.6783 39.6992 20.4756 39.6992 22.5225C39.6992 23.6064 39.3008 24.5166 38.5781 25.1709C38.3789 25.3486 38.1562 25.5078 37.9102 25.6465C37.5586 25.8467 37.1562 26.0039 36.7148 26.1133L36.7188 26.8398C36.7188 27.1992 36.582 27.5264 36.3555 27.7705C36.1094 28.04 35.7539 28.209 35.3594 28.209C34.9922 28.209 34.6602 28.0625 34.4141 27.8242C34.1602 27.5752 34 27.2256 34 26.8398V26.1543C33.3086 26.0195 32.6836 25.7881 32.1758 25.4971C31.3789 25.0381 30.875 24.4336 30.875 23.8271C30.875 23.418 31.0547 23.0615 31.3359 22.8457C31.5195 22.7061 31.7422 22.625 31.9883 22.625C32.4141 22.625 32.7734 22.877 33.1523 23.1445L33.1578 23.1483C33.7072 23.5331 34.3278 23.9678 35.4102 23.9678C36.4883 23.9678 37.1523 23.3896 37.1523 22.8555C37.1523 22.1254 36.0394 21.658 34.8584 21.162L34.8516 21.1592C33.1992 20.4678 31.3242 19.6826 31.3242 17.7686C31.3242 16.2207 32.3438 14.9932 34 14.5068V13.8848C34 13.1289 34.6094 12.5146 35.3594 12.5146C35.8047 12.5146 36.1992 12.7305 36.4453 13.0645C36.5039 13.1445 36.5547 13.2314 36.5977 13.3242C36.6758 13.4951 36.7188 13.6846 36.7188 13.8848V14.457C38.1055 14.7754 39.4102 15.5332 39.4102 16.6084C39.4102 17.1475 39.0391 17.7266 38.2188 17.7266C37.7824 17.7266 37.4704 17.4886 37.1665 17.2567L37.1641 17.2549L37.1613 17.2528C36.7636 16.9516 36.3143 16.6113 35.4102 16.6113C35.3047 16.6113 35.0273 16.6201 34.7383 16.6963C34.3203 16.8057 33.875 17.0557 33.875 17.623C33.875 18.207 34.9062 18.6094 36.0039 19.0361L36.0087 19.038ZM30.0234 45.043C30.0234 43.7021 28.6211 43.1797 27.4922 42.7598L27.4724 42.7524C27.0809 42.6065 26.6986 42.4641 26.4297 42.3066C26.1875 42.166 26.0312 42.0137 26.0312 41.835C26.0312 41.2041 26.9102 41.1729 27.0859 41.1729C27.7004 41.1729 28.009 41.3955 28.2815 41.5921L28.2852 41.5947C28.375 41.6602 28.4688 41.7266 28.5664 41.7812C28.6992 41.8525 28.8398 41.9033 29.0117 41.9033C29.5703 41.9033 29.8281 41.5234 29.8281 41.1709C29.8281 40.4678 28.9336 39.9707 27.9805 39.7617V39.3867C27.9805 39.1484 27.8828 38.9316 27.7266 38.7705C27.5586 38.5967 27.3164 38.4883 27.0508 38.4883C26.5352 38.4883 26.1172 38.8916 26.1172 39.3867V39.793C24.9805 40.1113 24.2852 40.916 24.2852 41.9297C24.2852 43.1836 25.5703 43.6982 26.7031 44.1514L26.7501 44.1704C27.0308 44.2839 27.3062 44.3952 27.543 44.5127C27.9727 44.7256 28.2773 44.959 28.2773 45.2607C28.2773 45.6113 27.8242 45.9893 27.0859 45.9893C26.3411 45.9893 25.9154 45.7041 25.537 45.4505L25.5352 45.4492C25.2773 45.2744 25.0312 45.1094 24.7383 45.1094C24.3125 45.1094 23.9766 45.4561 23.9766 45.8975C23.9766 46.5479 24.8984 47.1934 26.1172 47.4209V47.8711C26.1172 48.1445 26.2461 48.3896 26.4453 48.5547C26.6094 48.6875 26.8203 48.7676 27.0508 48.7676C27.5625 48.7676 27.9805 48.3652 27.9805 47.8711L27.9766 47.3945C29.2656 47.0918 30.0234 46.2246 30.0234 45.043ZM60.0769 18.0002V8.36816H68.4069V10.6782H63.1709V12.0082H67.6509V14.2202H63.1709V15.6902H68.5049V18.0002H60.0769ZM70.1384 18.0002V8.36816H74.4504L75.3324 11.7562C75.3698 11.8775 75.4211 12.0782 75.4864 12.3582C75.5611 12.6382 75.6358 12.9415 75.7104 13.2682C75.7944 13.5948 75.8691 13.8982 75.9344 14.1782H76.0464C76.0931 13.9728 76.1491 13.7302 76.2144 13.4502C76.2891 13.1608 76.3638 12.8668 76.4384 12.5682C76.5131 12.2695 76.5784 11.9988 76.6344 11.7562L77.5164 8.36816H81.6744V18.0002H78.7204V14.5282V13.3802C78.7298 12.9788 78.7344 12.6008 78.7344 12.2462C78.7438 11.8915 78.7484 11.5975 78.7484 11.3642H78.6364C78.6084 11.5508 78.5664 11.7702 78.5104 12.0222C78.4638 12.2742 78.4124 12.5262 78.3564 12.7782C78.3004 13.0208 78.2444 13.2355 78.1884 13.4222L76.9424 18.0002H74.6324L73.3724 13.4222C73.3258 13.2355 73.2698 13.0208 73.2044 12.7782C73.1484 12.5262 73.0971 12.2742 73.0504 12.0222C73.0038 11.7702 72.9618 11.5555 72.9244 11.3782H72.8124C72.8218 11.6115 72.8311 11.9055 72.8404 12.2602C72.8498 12.6148 72.8544 12.9882 72.8544 13.3802C72.8638 13.7722 72.8684 14.1548 72.8684 14.5282V18.0002H70.1384ZM83.7419 8.36816V18.0002H86.8359V14.8922H89.4259C90.0233 14.8922 90.5506 14.7568 91.0079 14.4862C91.4746 14.2155 91.8386 13.8375 92.0999 13.3522C92.3706 12.8575 92.5059 12.2788 92.5059 11.6162C92.5059 10.9722 92.3753 10.4075 92.1139 9.92216C91.8526 9.43683 91.4886 9.05883 91.0219 8.78816C90.5646 8.50816 90.0326 8.36816 89.4259 8.36816H83.7419ZM88.3899 12.6382H86.8359V10.6502H88.3899C88.6139 10.6502 88.7959 10.6875 88.9359 10.7622C89.0853 10.8368 89.1926 10.9488 89.2579 11.0982C89.3326 11.2382 89.3699 11.4202 89.3699 11.6442C89.3699 11.9708 89.2859 12.2182 89.1179 12.3862C88.9593 12.5542 88.7166 12.6382 88.3899 12.6382ZM93.8455 18.0002V8.36816H96.9395V18.0002H93.8455ZM99.0134 8.36816V18.0002H102.107V14.7662H103.633L105.103 18.0002H108.575L106.685 14.2482C107.18 13.9588 107.572 13.5762 107.861 13.1002C108.151 12.6148 108.295 12.0642 108.295 11.4482C108.295 10.9068 108.174 10.4028 107.931 9.93616C107.689 9.4695 107.325 9.0915 106.839 8.80216C106.363 8.51283 105.766 8.36816 105.047 8.36816H99.0134ZM104.277 12.6242H102.107V10.5662H104.277C104.445 10.5662 104.595 10.6128 104.725 10.7062C104.856 10.7902 104.959 10.9068 105.033 11.0562C105.108 11.2055 105.145 11.3782 105.145 11.5742C105.145 11.8915 105.061 12.1482 104.893 12.3442C104.725 12.5308 104.52 12.6242 104.277 12.6242ZM109.952 18.0002V8.36816H118.282V10.6782H113.046V12.0082H117.526V14.2202H113.046V15.6902H118.38V18.0002H109.952ZM61.8689 31.6082C62.6156 31.9815 63.5349 32.1682 64.6269 32.1682C65.6069 32.1682 66.4422 32.0142 67.1329 31.7062C67.8236 31.3888 68.3509 30.9268 68.7149 30.3202C69.0789 29.7135 69.2609 28.9715 69.2609 28.0942H66.4049C66.4049 28.4582 66.3349 28.7755 66.1949 29.0462C66.0642 29.3075 65.8636 29.5082 65.5929 29.6482C65.3316 29.7882 64.9956 29.8582 64.5849 29.8582C64.1649 29.8582 63.8242 29.7648 63.5629 29.5782C63.3016 29.3915 63.1056 29.1302 62.9749 28.7942C62.8536 28.4582 62.7929 28.0708 62.7929 27.6322V26.7362C62.7929 26.2975 62.8536 25.9102 62.9749 25.5742C63.0962 25.2382 63.2876 24.9768 63.5489 24.7902C63.8196 24.6035 64.1742 24.5102 64.6129 24.5102C64.9862 24.5102 65.2942 24.5848 65.5369 24.7342C65.7889 24.8835 65.9802 25.0935 66.1109 25.3642C66.2416 25.6348 66.3069 25.9568 66.3069 26.3302H69.2609C69.2609 25.4342 69.0696 24.6782 68.6869 24.0622C68.3042 23.4462 67.7629 22.9842 67.0629 22.6762C66.3722 22.3588 65.5602 22.2002 64.6269 22.2002C62.9842 22.2002 61.7382 22.6202 60.8889 23.4602C60.0489 24.3002 59.6289 25.5415 59.6289 27.1842C59.6289 28.2762 59.8156 29.1955 60.1889 29.9422C60.5716 30.6795 61.1316 31.2348 61.8689 31.6082ZM70.9314 22.3682H74.0254V29.5362H78.9674V32.0002H70.9314V22.3682ZM83.3633 22.3682H80.2693V32.0002H83.3633V22.3682ZM85.4792 22.3682H93.8092V24.6782H88.5732V26.0082H93.0533V28.2202H88.5732V29.6902H93.9072V32.0002H85.4792V22.3682ZM98.1728 22.3682H95.5408V32.0002H98.3548V28.1502V27.7582C98.3548 27.5808 98.3501 27.4035 98.3408 27.2262L98.4108 27.1982C98.5134 27.3382 98.6208 27.4875 98.7328 27.6462C98.8448 27.7955 98.9801 27.9635 99.1388 28.1502L102.513 32.0002H105.131V22.3682H102.317V25.8262V26.4142C102.317 26.6662 102.321 26.9228 102.331 27.1842L102.261 27.2122C102.186 27.1002 102.074 26.9555 101.925 26.7782C101.785 26.5915 101.645 26.4095 101.505 26.2322C101.365 26.0548 101.253 25.9195 101.169 25.8262L98.1728 22.3682ZM109.653 32.0002V24.8322H106.489V22.3682H115.897V24.8322H112.747V32.0002H109.653ZM60.8189 44.9082C61.6216 45.7482 62.8256 46.1682 64.4309 46.1682C64.9256 46.1682 65.3782 46.1262 65.7889 46.0422C66.1996 45.9582 66.5776 45.8322 66.9229 45.6642C67.2682 45.4962 67.5856 45.2908 67.8749 45.0482L68.1829 46.0002H69.7789V40.6242H64.6409V42.5842H66.8249V42.6402C66.8249 42.8828 66.7409 43.0975 66.5729 43.2842C66.4049 43.4708 66.1809 43.6155 65.9009 43.7182C65.6302 43.8115 65.3316 43.8582 65.0049 43.8582C64.5196 43.8582 64.1089 43.7695 63.7729 43.5922C63.4462 43.4148 63.1989 43.1628 63.0309 42.8362C62.8722 42.5002 62.7929 42.0988 62.7929 41.6322V40.7362C62.7929 40.3815 62.8396 40.0688 62.9329 39.7982C63.0262 39.5275 63.1616 39.2942 63.3389 39.0982C63.5256 38.9022 63.7589 38.7575 64.0389 38.6642C64.3189 38.5615 64.6409 38.5102 65.0049 38.5102C65.2476 38.5102 65.4762 38.5428 65.6909 38.6082C65.9149 38.6642 66.1109 38.7528 66.2789 38.8742C66.4469 38.9862 66.5776 39.1262 66.6709 39.2942C66.7736 39.4622 66.8249 39.6488 66.8249 39.8542H69.7789C69.7789 39.2475 69.6529 38.7155 69.4009 38.2582C69.1489 37.8008 68.7942 37.4228 68.3369 37.1242C67.8889 36.8162 67.3662 36.5875 66.7689 36.4382C66.1809 36.2795 65.5509 36.2002 64.8789 36.2002C63.7682 36.2002 62.8209 36.3868 62.0369 36.7602C61.2529 37.1335 60.6556 37.6888 60.2449 38.4262C59.8342 39.1635 59.6289 40.0828 59.6289 41.1842C59.6289 42.8268 60.0256 44.0682 60.8189 44.9082ZM71.739 46.0002V36.3682H80.069V38.6782H74.833V40.0082H79.313V42.2202H74.833V43.6902H80.167V46.0002H71.739ZM81.8005 36.3682V46.0002H84.6145V42.1502V41.7582C84.6145 41.5808 84.6099 41.4035 84.6005 41.2262L84.6705 41.1982C84.7732 41.3382 84.8805 41.4875 84.9925 41.6462C85.1045 41.7955 85.2399 41.9635 85.3985 42.1502L88.7725 46.0002H91.3905V36.3682H88.5765V39.8262V40.4142C88.5765 40.6662 88.5812 40.9228 88.5905 41.1842L88.5205 41.2122C88.4459 41.1002 88.3339 40.9555 88.1845 40.7782C88.0445 40.5915 87.9045 40.4095 87.7645 40.2322C87.6245 40.0548 87.5125 39.9195 87.4285 39.8262L84.4325 36.3682H81.8005ZM93.5046 46.0002V36.3682H101.835V38.6782H96.5986V40.0082H101.079V42.2202H96.5986V43.6902H101.933V46.0002H93.5046ZM103.566 36.3682V46.0002H106.66V42.7662H108.186L109.656 46.0002H113.128L111.238 42.2482C111.733 41.9588 112.125 41.5762 112.414 41.1002C112.703 40.6148 112.848 40.0642 112.848 39.4482C112.848 38.9068 112.727 38.4028 112.484 37.9362C112.241 37.4695 111.877 37.0915 111.392 36.8022C110.916 36.5128 110.319 36.3682 109.6 36.3682H103.566ZM108.83 40.6242H106.66V38.5662H108.83C108.998 38.5662 109.147 38.6128 109.278 38.7062C109.409 38.7902 109.511 38.9068 109.586 39.0562C109.661 39.2055 109.698 39.3782 109.698 39.5742C109.698 39.8915 109.614 40.1482 109.446 40.3442C109.278 40.5308 109.073 40.6242 108.83 40.6242ZM113.567 46.0002L117.081 36.3682H120.679L124.193 46.0002H120.917L120.511 44.6422H117.137L116.731 46.0002H113.567ZM117.781 42.4862H119.881L119.419 40.9462C119.381 40.8342 119.339 40.6988 119.293 40.5402C119.246 40.3815 119.199 40.2135 119.153 40.0362C119.106 39.8588 119.059 39.6862 119.013 39.5182C118.966 39.3408 118.924 39.1868 118.887 39.0562H118.775C118.737 39.2242 118.686 39.4155 118.621 39.6302C118.565 39.8448 118.504 40.0688 118.439 40.3022C118.373 40.5262 118.308 40.7408 118.243 40.9462L117.781 42.4862ZM126.688 38.8322V46.0002H129.782V38.8322H132.932V36.3682H123.524V38.8322H126.688ZM138.706 46.1682C137.614 46.1682 136.68 45.9815 135.906 45.6082C135.131 45.2348 134.538 44.6795 134.128 43.9422C133.717 43.1955 133.512 42.2762 133.512 41.1842C133.512 40.0828 133.717 39.1635 134.128 38.4262C134.538 37.6888 135.131 37.1335 135.906 36.7602C136.68 36.3868 137.614 36.2002 138.706 36.2002C139.807 36.2002 140.745 36.3868 141.52 36.7602C142.294 37.1335 142.887 37.6888 143.298 38.4262C143.708 39.1635 143.914 40.0828 143.914 41.1842C143.914 42.2762 143.708 43.1955 143.298 43.9422C142.887 44.6795 142.294 45.2348 141.52 45.6082C140.745 45.9815 139.807 46.1682 138.706 46.1682ZM138.706 43.8582C139.042 43.8582 139.336 43.8068 139.588 43.7042C139.849 43.5922 140.064 43.4382 140.232 43.2422C140.409 43.0462 140.54 42.8128 140.624 42.5422C140.708 42.2622 140.75 41.9588 140.75 41.6322V40.7362C140.75 40.4095 140.708 40.1108 140.624 39.8402C140.54 39.5602 140.409 39.3222 140.232 39.1262C140.064 38.9302 139.849 38.7808 139.588 38.6782C139.336 38.5662 139.042 38.5102 138.706 38.5102C138.37 38.5102 138.071 38.5662 137.81 38.6782C137.558 38.7808 137.348 38.9302 137.18 39.1262C137.012 39.3222 136.886 39.5602 136.802 39.8402C136.718 40.1108 136.676 40.4095 136.676 40.7362V41.6322C136.676 41.9588 136.718 42.2622 136.802 42.5422C136.886 42.8128 137.012 43.0462 137.18 43.2422C137.348 43.4382 137.558 43.5922 137.81 43.7042C138.071 43.8068 138.37 43.8582 138.706 43.8582ZM145.58 36.3682V46.0002H148.674V42.7662H150.2L151.67 46.0002H155.142L153.252 42.2482C153.746 41.9588 154.139 41.5762 154.428 41.1002C154.717 40.6148 154.862 40.0642 154.862 39.4482C154.862 38.9068 154.74 38.4028 154.498 37.9362C154.255 37.4695 153.891 37.0915 153.406 36.8022C152.93 36.5128 152.333 36.3682 151.614 36.3682H145.58ZM150.844 40.6242H148.674V38.5662H150.844C151.012 38.5662 151.161 38.6128 151.292 38.7062C151.423 38.7902 151.525 38.9068 151.6 39.0562C151.674 39.2055 151.712 39.3782 151.712 39.5742C151.712 39.8915 151.628 40.1482 151.46 40.3442C151.292 40.5308 151.087 40.6242 150.844 40.6242Z" fill="#F5F2EA"/>
</svg>
